<svg width="36" height="38" viewBox="0 0 36 38" fill="none" xmlns="http://www.w3.org/2000/svg">
<g filter="url(#filter0_d_20531_840)">
<path fill-rule="evenodd" clip-rule="evenodd" d="M18.0001 7.5C19.6245 7.49997 21.1855 8.13069 22.3537 9.25912C23.5219 10.3875 24.206 11.9254 24.2617 13.5484L24.2653 13.7632V16.8948C24.2653 17.0501 24.3014 17.2033 24.3709 17.3421L25.896 20.3914C25.9672 20.5336 26.0028 20.691 25.9998 20.85C25.9968 21.0091 25.9553 21.165 25.8789 21.3045C25.8024 21.444 25.6933 21.5629 25.5608 21.651C25.4283 21.7391 25.2765 21.7938 25.1182 21.8104L25.0153 21.8158H10.9848C10.8257 21.8158 10.6688 21.7773 10.5278 21.7035C10.3868 21.6297 10.2658 21.5228 10.1752 21.392C10.0846 21.2612 10.027 21.1104 10.0075 20.9525C9.9879 20.7946 10.0069 20.6343 10.0629 20.4853L10.1041 20.3914L11.6292 17.3421C11.6987 17.2033 11.7349 17.0501 11.7349 16.8948V13.7632C11.7349 12.1021 12.3949 10.509 13.5699 9.33444C14.7449 8.15987 16.3384 7.5 18.0001 7.5ZM18.0001 9.28947C16.8469 9.28954 15.7382 9.73464 14.9053 10.532C14.0723 11.3293 13.5794 12.4173 13.5294 13.569L13.5249 13.7632V17.1309C13.5249 17.3528 13.4837 17.5728 13.4032 17.7796L13.3361 17.9317L13.0124 18.5791C12.68 19.244 13.1635 20.0263 13.9068 20.0263H22.0945C22.8378 20.0263 23.3213 19.2442 22.989 18.5793L22.665 17.9308C22.5656 17.7325 22.504 17.5174 22.4833 17.2965L22.4752 17.1309V13.7632C22.4752 12.5767 22.0037 11.4388 21.1645 10.5998C20.3252 9.76081 19.187 9.28947 18.0001 9.28947Z" fill="#5ED3F3"/>
<path d="M19.6855 22.7105C20.2376 22.7105 20.7059 23.1908 20.4133 23.6591C20.3538 23.7543 20.2851 23.8444 20.2077 23.9279C19.9006 24.2589 19.4797 24.4617 19.0294 24.4955L18.8951 24.5H17.105C16.6534 24.5001 16.2185 24.3296 15.8873 24.0227C15.7788 23.922 15.6799 23.7972 15.596 23.6581C15.3107 23.1853 15.7627 22.7105 16.315 22.7105H19.6855Z" fill="#5ED3F3"/>
</g>
<defs>
<filter id="filter0_d_20531_840" x="0" y="0.5" width="36" height="37" filterUnits="userSpaceOnUse" color-interpolation-filters="sRGB">
<feFlood flood-opacity="0" result="BackgroundImageFix"/>
<feColorMatrix in="SourceAlpha" type="matrix" values="0 0 0 0 0 0 0 0 0 0 0 0 0 0 0 0 0 0 127 0" result="hardAlpha"/>
<feOffset dy="3"/>
<feGaussianBlur stdDeviation="5"/>
<feComposite in2="hardAlpha" operator="out"/>
<feColorMatrix type="matrix" values="0 0 0 0 0.0627451 0 0 0 0 0.215686 0 0 0 0 0.639216 0 0 0 0.6 0"/>
<feBlend mode="normal" in2="BackgroundImageFix" result="effect1_dropShadow_20531_840"/>
<feBlend mode="normal" in="SourceGraphic" in2="effect1_dropShadow_20531_840" result="shape"/>
</filter>
</defs>
</svg>
